<svg xmlns="http://www.w3.org/2000/svg" xmlns:xlink="http://www.w3.org/1999/xlink" contentStyleType="text/css" data-diagram-type="CLASS" height="1013px" preserveAspectRatio="none" style="width:1813px;height:1013px;background:#FFFFFF;" version="1.1" viewBox="0 0 1813 1013" width="1813px" zoomAndPan="magnify"><defs/><g><!--class AcetAuth--><g class="entity" data-entity="AcetAuth" data-source-line="1" data-uid="ent0002" id="entity_AcetAuth"><rect fill="#F1F1F1" height="243.5625" rx="2.5" ry="2.5" style="stroke:#181818;stroke-width:0.5;" width="874.0664" x="7" y="637"/><ellipse cx="407.6885" cy="653" fill="#ADD1B2" rx="11" ry="11" style="stroke:#181818;stroke-width:1;"/><path d="M410.6572,658.6406 Q410.0791,658.9375 409.4385,659.0781 Q408.7979,659.2344 408.0947,659.2344 Q405.5947,659.2344 404.2666,657.5938 Q402.9541,655.9375 402.9541,652.8125 Q402.9541,649.6875 404.2666,648.0313 Q405.5947,646.375 408.0947,646.375 Q408.7979,646.375 409.4385,646.5313 Q410.0947,646.6875 410.6572,646.9844 L410.6572,649.7031 Q410.0322,649.125 409.4385,648.8594 Q408.8447,648.5781 408.2197,648.5781 Q406.876,648.5781 406.1885,649.6563 Q405.501,650.7188 405.501,652.8125 Q405.501,654.9063 406.1885,655.9844 Q406.876,657.0469 408.2197,657.0469 Q408.8447,657.0469 409.4385,656.7813 Q410.0322,656.5 410.6572,655.9219 L410.6572,658.6406 Z " fill="#000000"/><text fill="#000000" font-family="sans-serif" font-size="14" lengthAdjust="spacing" textLength="64.1895" x="428.1885" y="657.8467">AcetAuth</text><line style="stroke:#181818;stroke-width:0.5;" x1="8" x2="880.0664" y1="669" y2="669"/><rect fill="none" height="6" style="stroke:#C82930;stroke-width:1;" width="6" x="15" y="679.6484"/><text fill="#000000" font-family="sans-serif" font-size="14" lengthAdjust="spacing" textLength="90.5967" x="27" y="685.9951">token: String</text><rect fill="none" height="6" style="stroke:#C82930;stroke-width:1;" width="6" x="15" y="695.9453"/><text fill="#000000" font-family="sans-serif" font-size="14" lengthAdjust="spacing" textLength="90.6514" x="27" y="702.292">name: String</text><rect fill="none" height="6" style="stroke:#C82930;stroke-width:1;" width="6" x="15" y="712.2422"/><text fill="#000000" font-family="sans-serif" font-size="14" lengthAdjust="spacing" textLength="112.5742" x="27" y="718.5889">surname: String</text><rect fill="none" height="6" style="stroke:#C82930;stroke-width:1;" width="6" x="15" y="728.5391"/><text fill="#000000" font-family="sans-serif" font-size="14" lengthAdjust="spacing" textLength="123.8945" x="27" y="734.8857">isDoctor: Boolean</text><rect fill="none" height="6" style="stroke:#C82930;stroke-width:1;" width="6" x="15" y="744.8359"/><text fill="#000000" font-family="sans-serif" font-size="14" lengthAdjust="spacing" textLength="121.9053" x="27" y="751.1826">isAdmin: Boolean</text><line style="stroke:#181818;stroke-width:0.5;" x1="8" x2="880.0664" y1="758.4844" y2="758.4844"/><ellipse cx="18" cy="772.1328" fill="#84BE84" rx="3" ry="3" style="stroke:#038048;stroke-width:1;"/><text fill="#000000" font-family="sans-serif" font-size="14" lengthAdjust="spacing" textLength="218.7979" x="27" y="775.4795">_make_session(): ClientSession</text><ellipse cx="18" cy="788.4297" fill="#84BE84" rx="3" ry="3" style="stroke:#038048;stroke-width:1;"/><text fill="#000000" font-family="sans-serif" font-size="14" lengthAdjust="spacing" textLength="705.585" x="27" y="791.7764">register(username: String, password: String, name: String, surname: String, isDoctor: Boolean): void</text><ellipse cx="18" cy="804.7266" fill="#84BE84" rx="3" ry="3" style="stroke:#038048;stroke-width:1;"/><text fill="#000000" font-family="sans-serif" font-size="14" lengthAdjust="spacing" textLength="427.1641" x="27" y="808.0732">auth_by_password(username: String, password: String): void</text><ellipse cx="18" cy="821.0234" fill="#84BE84" rx="3" ry="3" style="stroke:#038048;stroke-width:1;"/><text fill="#000000" font-family="sans-serif" font-size="14" lengthAdjust="spacing" textLength="143.8965" x="27" y="824.3701">update_chats(): Map</text><ellipse cx="18" cy="837.3203" fill="#84BE84" rx="3" ry="3" style="stroke:#038048;stroke-width:1;"/><text fill="#000000" font-family="sans-serif" font-size="14" lengthAdjust="spacing" textLength="848.0664" x="27" y="840.667">send_message(message_text: String, chat_id: String, call_type: int, context: String, filename: String, image: String): Map</text><ellipse cx="18" cy="853.6172" fill="#84BE84" rx="3" ry="3" style="stroke:#038048;stroke-width:1;"/><text fill="#000000" font-family="sans-serif" font-size="14" lengthAdjust="spacing" textLength="217.0205" x="27" y="856.9639">_apply_profile(data: Map): void</text><ellipse cx="18" cy="869.9141" fill="#84BE84" rx="3" ry="3" style="stroke:#038048;stroke-width:1;"/><text fill="#000000" font-family="sans-serif" font-size="14" lengthAdjust="spacing" textLength="192.9102" x="27" y="873.2607">is_authenticated(): Boolean</text></g><!--class AcetAngleApp--><g class="entity" data-entity="AcetAngleApp" data-source-line="16" data-uid="ent0003" id="entity_AcetAngleApp"><rect fill="#F1F1F1" height="553.2031" rx="2.5" ry="2.5" style="stroke:#181818;stroke-width:0.5;" width="235.6582" x="326" y="7"/><ellipse cx="390.2954" cy="23" fill="#ADD1B2" rx="11" ry="11" style="stroke:#181818;stroke-width:1;"/><path d="M393.2642,28.6406 Q392.686,28.9375 392.0454,29.0781 Q391.4048,29.2344 390.7017,29.2344 Q388.2017,29.2344 386.8735,27.5938 Q385.561,25.9375 385.561,22.8125 Q385.561,19.6875 386.8735,18.0313 Q388.2017,16.375 390.7017,16.375 Q391.4048,16.375 392.0454,16.5313 Q392.7017,16.6875 393.2642,16.9844 L393.2642,19.7031 Q392.6392,19.125 392.0454,18.8594 Q391.4517,18.5781 390.8267,18.5781 Q389.4829,18.5781 388.7954,19.6563 Q388.1079,20.7188 388.1079,22.8125 Q388.1079,24.9063 388.7954,25.9844 Q389.4829,27.0469 390.8267,27.0469 Q391.4517,27.0469 392.0454,26.7813 Q392.6392,26.5 393.2642,25.9219 L393.2642,28.6406 Z " fill="#000000"/><text fill="#000000" font-family="sans-serif" font-size="14" lengthAdjust="spacing" textLength="98.5674" x="410.7954" y="27.8467">AcetAngleApp</text><line style="stroke:#181818;stroke-width:0.5;" x1="327" x2="560.6582" y1="39" y2="39"/><line style="stroke:#181818;stroke-width:0.5;" x1="327" x2="560.6582" y1="47" y2="47"/><ellipse cx="337" cy="60.6484" fill="#84BE84" rx="3" ry="3" style="stroke:#038048;stroke-width:1;"/><text fill="#000000" font-family="sans-serif" font-size="14" lengthAdjust="spacing" textLength="61.0654" x="346" y="63.9951">__init__()</text><ellipse cx="337" cy="76.9453" fill="#84BE84" rx="3" ry="3" style="stroke:#038048;stroke-width:1;"/><text fill="#000000" font-family="sans-serif" font-size="14" lengthAdjust="spacing" textLength="173.9609" x="346" y="80.292">_start_async_loop(): void</text><ellipse cx="337" cy="93.2422" fill="#84BE84" rx="3" ry="3" style="stroke:#038048;stroke-width:1;"/><text fill="#000000" font-family="sans-serif" font-size="14" lengthAdjust="spacing" textLength="209.6582" x="346" y="96.5889">_shutdown_async_loop(): void</text><ellipse cx="337" cy="109.5391" fill="#84BE84" rx="3" ry="3" style="stroke:#038048;stroke-width:1;"/><text fill="#000000" font-family="sans-serif" font-size="14" lengthAdjust="spacing" textLength="127.9482" x="346" y="112.8857">_run_async(): void</text><ellipse cx="337" cy="125.8359" fill="#84BE84" rx="3" ry="3" style="stroke:#038048;stroke-width:1;"/><text fill="#000000" font-family="sans-serif" font-size="14" lengthAdjust="spacing" textLength="155.9824" x="346" y="129.1826">_done_callback(): void</text><ellipse cx="337" cy="142.1328" fill="#84BE84" rx="3" ry="3" style="stroke:#038048;stroke-width:1;"/><text fill="#000000" font-family="sans-serif" font-size="14" lengthAdjust="spacing" textLength="187.8516" x="346" y="145.4795">_show_login_screen(): void</text><ellipse cx="337" cy="158.4297" fill="#84BE84" rx="3" ry="3" style="stroke:#038048;stroke-width:1;"/><text fill="#000000" font-family="sans-serif" font-size="14" lengthAdjust="spacing" textLength="115.2744" x="346" y="161.7764">_do_login(): void</text><ellipse cx="337" cy="174.7266" fill="#84BE84" rx="3" ry="3" style="stroke:#038048;stroke-width:1;"/><text fill="#000000" font-family="sans-serif" font-size="14" lengthAdjust="spacing" textLength="208.0449" x="346" y="178.0732">_show_register_screen(): void</text><ellipse cx="337" cy="191.0234" fill="#84BE84" rx="3" ry="3" style="stroke:#038048;stroke-width:1;"/><text fill="#000000" font-family="sans-serif" font-size="14" lengthAdjust="spacing" textLength="135.4678" x="346" y="194.3701">_do_register(): void</text><ellipse cx="337" cy="207.3203" fill="#84BE84" rx="3" ry="3" style="stroke:#038048;stroke-width:1;"/><text fill="#000000" font-family="sans-serif" font-size="14" lengthAdjust="spacing" textLength="188.7266" x="346" y="210.667">_show_main_screen(): void</text><ellipse cx="337" cy="223.6172" fill="#84BE84" rx="3" ry="3" style="stroke:#038048;stroke-width:1;"/><text fill="#000000" font-family="sans-serif" font-size="14" lengthAdjust="spacing" textLength="199.0215" x="346" y="226.9639">_show_empty_results(): void</text><ellipse cx="337" cy="239.9141" fill="#84BE84" rx="3" ry="3" style="stroke:#038048;stroke-width:1;"/><text fill="#000000" font-family="sans-serif" font-size="14" lengthAdjust="spacing" textLength="137.2451" x="346" y="243.2607">_load_image(): void</text><ellipse cx="337" cy="256.2109" fill="#84BE84" rx="3" ry="3" style="stroke:#038048;stroke-width:1;"/><text fill="#000000" font-family="sans-serif" font-size="14" lengthAdjust="spacing" textLength="157.0352" x="346" y="259.5576">_display_image(): void</text><ellipse cx="337" cy="272.5078" fill="#84BE84" rx="3" ry="3" style="stroke:#038048;stroke-width:1;"/><text fill="#000000" font-family="sans-serif" font-size="14" lengthAdjust="spacing" textLength="178.9785" x="346" y="275.8545">_on_canvas_resize(): void</text><ellipse cx="337" cy="288.8047" fill="#84BE84" rx="3" ry="3" style="stroke:#038048;stroke-width:1;"/><text fill="#000000" font-family="sans-serif" font-size="14" lengthAdjust="spacing" textLength="110.8857" x="346" y="292.1514">_analyze(): void</text><ellipse cx="337" cy="305.1016" fill="#84BE84" rx="3" ry="3" style="stroke:#038048;stroke-width:1;"/><text fill="#000000" font-family="sans-serif" font-size="14" lengthAdjust="spacing" textLength="161.5127" x="346" y="308.4482">_on_analysis_ok(): void</text><ellipse cx="337" cy="321.3984" fill="#84BE84" rx="3" ry="3" style="stroke:#038048;stroke-width:1;"/><text fill="#000000" font-family="sans-serif" font-size="14" lengthAdjust="spacing" textLength="164.9648" x="346" y="324.7451">_on_analysis_err(): void</text><ellipse cx="337" cy="337.6953" fill="#84BE84" rx="3" ry="3" style="stroke:#038048;stroke-width:1;"/><text fill="#000000" font-family="sans-serif" font-size="14" lengthAdjust="spacing" textLength="160.6377" x="346" y="341.042">_display_results(): void</text><ellipse cx="337" cy="353.9922" fill="#84BE84" rx="3" ry="3" style="stroke:#038048;stroke-width:1;"/><text fill="#000000" font-family="sans-serif" font-size="14" lengthAdjust="spacing" textLength="129.4043" x="346" y="357.3389">_result_row(): void</text><ellipse cx="337" cy="370.2891" fill="#84BE84" rx="3" ry="3" style="stroke:#038048;stroke-width:1;"/><text fill="#000000" font-family="sans-serif" font-size="14" lengthAdjust="spacing" textLength="174.6924" x="346" y="373.6357">_show_text_result(): void</text><ellipse cx="337" cy="386.5859" fill="#84BE84" rx="3" ry="3" style="stroke:#038048;stroke-width:1;"/><text fill="#000000" font-family="sans-serif" font-size="14" lengthAdjust="spacing" textLength="71.0938" x="346" y="389.9326">_pt(): void</text><ellipse cx="337" cy="402.8828" fill="#84BE84" rx="3" ry="3" style="stroke:#038048;stroke-width:1;"/><text fill="#000000" font-family="sans-serif" font-size="14" lengthAdjust="spacing" textLength="83.0703" x="346" y="406.2295">_add(): void</text><ellipse cx="337" cy="419.1797" fill="#84BE84" rx="3" ry="3" style="stroke:#038048;stroke-width:1;"/><text fill="#000000" font-family="sans-serif" font-size="14" lengthAdjust="spacing" textLength="157.6572" x="346" y="422.5264">_draw_overlays(): void</text><ellipse cx="337" cy="435.4766" fill="#84BE84" rx="3" ry="3" style="stroke:#038048;stroke-width:1;"/><text fill="#000000" font-family="sans-serif" font-size="14" lengthAdjust="spacing" textLength="164.6982" x="346" y="438.8232">_draw_landmark(): void</text><ellipse cx="337" cy="451.7734" fill="#84BE84" rx="3" ry="3" style="stroke:#038048;stroke-width:1;"/><text fill="#000000" font-family="sans-serif" font-size="14" lengthAdjust="spacing" textLength="123.6553" x="346" y="455.1201">_draw_line(): void</text><ellipse cx="337" cy="468.0703" fill="#84BE84" rx="3" ry="3" style="stroke:#038048;stroke-width:1;"/><text fill="#000000" font-family="sans-serif" font-size="14" lengthAdjust="spacing" textLength="137.2314" x="346" y="471.417">_draw_angle(): void</text><ellipse cx="337" cy="484.3672" fill="#84BE84" rx="3" ry="3" style="stroke:#038048;stroke-width:1;"/><text fill="#000000" font-family="sans-serif" font-size="14" lengthAdjust="spacing" textLength="140.1299" x="346" y="487.7139">_draw_coxae(): void</text><ellipse cx="337" cy="500.6641" fill="#84BE84" rx="3" ry="3" style="stroke:#038048;stroke-width:1;"/><text fill="#000000" font-family="sans-serif" font-size="14" lengthAdjust="spacing" textLength="148.7021" x="346" y="504.0107">_add_label_bg(): void</text><ellipse cx="337" cy="516.9609" fill="#84BE84" rx="3" ry="3" style="stroke:#038048;stroke-width:1;"/><text fill="#000000" font-family="sans-serif" font-size="14" lengthAdjust="spacing" textLength="160.0225" x="346" y="520.3076">_toggle_overlay(): void</text><ellipse cx="337" cy="533.2578" fill="#84BE84" rx="3" ry="3" style="stroke:#038048;stroke-width:1;"/><text fill="#000000" font-family="sans-serif" font-size="14" lengthAdjust="spacing" textLength="151.3682" x="346" y="536.6045">_clear_window(): void</text><ellipse cx="337" cy="549.5547" fill="#84BE84" rx="3" ry="3" style="stroke:#038048;stroke-width:1;"/><text fill="#000000" font-family="sans-serif" font-size="14" lengthAdjust="spacing" textLength="100.9873" x="346" y="552.9014">_logout(): void</text></g><!--class RequestHandler--><g class="entity" data-entity="RequestHandler" data-source-line="50" data-uid="ent0004" id="entity_RequestHandler"><rect fill="#F1F1F1" height="80.5938" rx="2.5" ry="2.5" style="stroke:#181818;stroke-width:0.5;" width="304.2979" x="912" y="243"/><ellipse cx="1003.5879" cy="259" fill="#ADD1B2" rx="11" ry="11" style="stroke:#181818;stroke-width:1;"/><path d="M1006.5566,264.6406 Q1005.9785,264.9375 1005.3379,265.0781 Q1004.6973,265.2344 1003.9941,265.2344 Q1001.4941,265.2344 1000.166,263.5938 Q998.8535,261.9375 998.8535,258.8125 Q998.8535,255.6875 1000.166,254.0313 Q1001.4941,252.375 1003.9941,252.375 Q1004.6973,252.375 1005.3379,252.5313 Q1005.9941,252.6875 1006.5566,252.9844 L1006.5566,255.7031 Q1005.9316,255.125 1005.3379,254.8594 Q1004.7441,254.5781 1004.1191,254.5781 Q1002.7754,254.5781 1002.0879,255.6563 Q1001.4004,256.7188 1001.4004,258.8125 Q1001.4004,260.9063 1002.0879,261.9844 Q1002.7754,263.0469 1004.1191,263.0469 Q1004.7441,263.0469 1005.3379,262.7813 Q1005.9316,262.5 1006.5566,261.9219 L1006.5566,264.6406 Z " fill="#000000"/><text fill="#000000" font-family="sans-serif" font-size="14" lengthAdjust="spacing" textLength="112.6221" x="1024.0879" y="263.8467">RequestHandler</text><line style="stroke:#181818;stroke-width:0.5;" x1="913" x2="1215.2979" y1="275" y2="275"/><line style="stroke:#181818;stroke-width:0.5;" x1="913" x2="1215.2979" y1="283" y2="283"/><ellipse cx="923" cy="296.6484" fill="#84BE84" rx="3" ry="3" style="stroke:#038048;stroke-width:1;"/><text fill="#000000" font-family="sans-serif" font-size="14" lengthAdjust="spacing" textLength="111.0703" x="932" y="299.9951">do_POST(): void</text><ellipse cx="923" cy="312.9453" fill="#84BE84" rx="3" ry="3" style="stroke:#038048;stroke-width:1;"/><text fill="#000000" font-family="sans-serif" font-size="14" lengthAdjust="spacing" textLength="278.2979" x="932" y="316.292">log_message(format: String, args): void</text></g><!--class JsonSchema--><g class="entity" data-entity="JsonSchema" data-source-line="55" data-uid="ent0005" id="entity_JsonSchema"><rect fill="#F1F1F1" height="96.8906" rx="2.5" ry="2.5" style="stroke:#181818;stroke-width:0.5;" width="127.4727" x="916.5" y="710.5"/><ellipse cx="936.1459" cy="726.5" fill="#ADD1B2" rx="11" ry="11" style="stroke:#181818;stroke-width:1;"/><path d="M939.1146,732.1406 Q938.5365,732.4375 937.8959,732.5781 Q937.2553,732.7344 936.5521,732.7344 Q934.0521,732.7344 932.724,731.0938 Q931.4115,729.4375 931.4115,726.3125 Q931.4115,723.1875 932.724,721.5313 Q934.0521,719.875 936.5521,719.875 Q937.2553,719.875 937.8959,720.0313 Q938.5521,720.1875 939.1146,720.4844 L939.1146,723.2031 Q938.4896,722.625 937.8959,722.3594 Q937.3021,722.0781 936.6771,722.0781 Q935.3334,722.0781 934.6459,723.1563 Q933.9584,724.2188 933.9584,726.3125 Q933.9584,728.4063 934.6459,729.4844 Q935.3334,730.5469 936.6771,730.5469 Q937.3021,730.5469 937.8959,730.2813 Q938.4896,730 939.1146,729.4219 L939.1146,732.1406 Z " fill="#000000"/><text fill="#000000" font-family="sans-serif" font-size="14" lengthAdjust="spacing" textLength="85.1484" x="951.1783" y="731.3467">JsonSchema</text><line style="stroke:#181818;stroke-width:0.5;" x1="917.5" x2="1042.9727" y1="742.5" y2="742.5"/><ellipse cx="927.5" cy="756.1484" fill="none" rx="3" ry="3" style="stroke:#038048;stroke-width:1;"/><text fill="#000000" font-family="sans-serif" font-size="14" lengthAdjust="spacing" textLength="90.6514" x="936.5" y="759.4951">name: String</text><ellipse cx="927.5" cy="772.4453" fill="none" rx="3" ry="3" style="stroke:#038048;stroke-width:1;"/><text fill="#000000" font-family="sans-serif" font-size="14" lengthAdjust="spacing" textLength="101.4727" x="936.5" y="775.792">strict: Boolean</text><ellipse cx="927.5" cy="788.7422" fill="none" rx="3" ry="3" style="stroke:#038048;stroke-width:1;"/><text fill="#000000" font-family="sans-serif" font-size="14" lengthAdjust="spacing" textLength="93.4063" x="936.5" y="792.0889">schema: Map</text><line style="stroke:#181818;stroke-width:0.5;" x1="917.5" x2="1042.9727" y1="799.3906" y2="799.3906"/></g><!--class RenderSchema--><g class="entity" data-entity="RenderSchema" data-source-line="61" data-uid="ent0006" id="entity_RenderSchema"><rect fill="#F1F1F1" height="96.8906" rx="2.5" ry="2.5" style="stroke:#181818;stroke-width:0.5;" width="138.7568" x="1078.5" y="710.5"/><ellipse cx="1093.5" cy="726.5" fill="#ADD1B2" rx="11" ry="11" style="stroke:#181818;stroke-width:1;"/><path d="M1096.4688,732.1406 Q1095.8906,732.4375 1095.25,732.5781 Q1094.6094,732.7344 1093.9063,732.7344 Q1091.4063,732.7344 1090.0781,731.0938 Q1088.7656,729.4375 1088.7656,726.3125 Q1088.7656,723.1875 1090.0781,721.5313 Q1091.4063,719.875 1093.9063,719.875 Q1094.6094,719.875 1095.25,720.0313 Q1095.9063,720.1875 1096.4688,720.4844 L1096.4688,723.2031 Q1095.8438,722.625 1095.25,722.3594 Q1094.6563,722.0781 1094.0313,722.0781 Q1092.6875,722.0781 1092,723.1563 Q1091.3125,724.2188 1091.3125,726.3125 Q1091.3125,728.4063 1092,729.4844 Q1092.6875,730.5469 1094.0313,730.5469 Q1094.6563,730.5469 1095.25,730.2813 Q1095.8438,730 1096.4688,729.4219 L1096.4688,732.1406 Z " fill="#000000"/><text fill="#000000" font-family="sans-serif" font-size="14" lengthAdjust="spacing" textLength="106.7568" x="1107.5" y="731.3467">RenderSchema</text><line style="stroke:#181818;stroke-width:0.5;" x1="1079.5" x2="1216.2568" y1="742.5" y2="742.5"/><ellipse cx="1089.5" cy="756.1484" fill="none" rx="3" ry="3" style="stroke:#038048;stroke-width:1;"/><text fill="#000000" font-family="sans-serif" font-size="14" lengthAdjust="spacing" textLength="90.6514" x="1098.5" y="759.4951">name: String</text><ellipse cx="1089.5" cy="772.4453" fill="none" rx="3" ry="3" style="stroke:#038048;stroke-width:1;"/><text fill="#000000" font-family="sans-serif" font-size="14" lengthAdjust="spacing" textLength="101.4727" x="1098.5" y="775.792">strict: Boolean</text><ellipse cx="1089.5" cy="788.7422" fill="none" rx="3" ry="3" style="stroke:#038048;stroke-width:1;"/><text fill="#000000" font-family="sans-serif" font-size="14" lengthAdjust="spacing" textLength="93.4063" x="1098.5" y="792.0889">schema: Map</text><line style="stroke:#181818;stroke-width:0.5;" x1="1079.5" x2="1216.2568" y1="799.3906" y2="799.3906"/></g><!--class AuthRequest--><g class="entity" data-entity="AuthRequest" data-source-line="67" data-uid="ent0007" id="entity_AuthRequest"><rect fill="#F1F1F1" height="80.5938" rx="2.5" ry="2.5" style="stroke:#181818;stroke-width:0.5;" width="147.1875" x="1252.5" y="718.5"/><ellipse cx="1278.6951" cy="734.5" fill="#ADD1B2" rx="11" ry="11" style="stroke:#181818;stroke-width:1;"/><path d="M1281.6638,740.1406 Q1281.0857,740.4375 1280.4451,740.5781 Q1279.8044,740.7344 1279.1013,740.7344 Q1276.6013,740.7344 1275.2732,739.0938 Q1273.9607,737.4375 1273.9607,734.3125 Q1273.9607,731.1875 1275.2732,729.5313 Q1276.6013,727.875 1279.1013,727.875 Q1279.8044,727.875 1280.4451,728.0313 Q1281.1013,728.1875 1281.6638,728.4844 L1281.6638,731.2031 Q1281.0388,730.625 1280.4451,730.3594 Q1279.8513,730.0781 1279.2263,730.0781 Q1277.8826,730.0781 1277.1951,731.1563 Q1276.5076,732.2188 1276.5076,734.3125 Q1276.5076,736.4063 1277.1951,737.4844 Q1277.8826,738.5469 1279.2263,738.5469 Q1279.8513,738.5469 1280.4451,738.2813 Q1281.0388,738 1281.6638,737.4219 L1281.6638,740.1406 Z " fill="#000000"/><text fill="#000000" font-family="sans-serif" font-size="14" lengthAdjust="spacing" textLength="90.3096" x="1295.1829" y="739.3467">AuthRequest</text><line style="stroke:#181818;stroke-width:0.5;" x1="1253.5" x2="1398.6875" y1="750.5" y2="750.5"/><ellipse cx="1263.5" cy="764.1484" fill="none" rx="3" ry="3" style="stroke:#038048;stroke-width:1;"/><text fill="#000000" font-family="sans-serif" font-size="14" lengthAdjust="spacing" textLength="121.1875" x="1272.5" y="767.4951">username: String</text><ellipse cx="1263.5" cy="780.4453" fill="none" rx="3" ry="3" style="stroke:#038048;stroke-width:1;"/><text fill="#000000" font-family="sans-serif" font-size="14" lengthAdjust="spacing" textLength="117.6602" x="1272.5" y="783.792">password: String</text><line style="stroke:#181818;stroke-width:0.5;" x1="1253.5" x2="1398.6875" y1="791.0938" y2="791.0938"/></g><!--class RegisterRequest--><g class="entity" data-entity="RegisterRequest" data-source-line="72" data-uid="ent0008" id="entity_RegisterRequest"><rect fill="#F1F1F1" height="129.4844" rx="2.5" ry="2.5" style="stroke:#181818;stroke-width:0.5;" width="149.8945" x="1435" y="694.5"/><ellipse cx="1450.9576" cy="710.5" fill="#ADD1B2" rx="11" ry="11" style="stroke:#181818;stroke-width:1;"/><path d="M1453.9263,716.1406 Q1453.3482,716.4375 1452.7076,716.5781 Q1452.0669,716.7344 1451.3638,716.7344 Q1448.8638,716.7344 1447.5357,715.0938 Q1446.2232,713.4375 1446.2232,710.3125 Q1446.2232,707.1875 1447.5357,705.5313 Q1448.8638,703.875 1451.3638,703.875 Q1452.0669,703.875 1452.7076,704.0313 Q1453.3638,704.1875 1453.9263,704.4844 L1453.9263,707.2031 Q1453.3013,706.625 1452.7076,706.3594 Q1452.1138,706.0781 1451.4888,706.0781 Q1450.1451,706.0781 1449.4576,707.1563 Q1448.7701,708.2188 1448.7701,710.3125 Q1448.7701,712.4063 1449.4576,713.4844 Q1450.1451,714.5469 1451.4888,714.5469 Q1452.1138,714.5469 1452.7076,714.2813 Q1453.3013,714 1453.9263,713.4219 L1453.9263,716.1406 Z " fill="#000000"/><text fill="#000000" font-family="sans-serif" font-size="14" lengthAdjust="spacing" textLength="115.7666" x="1465.1704" y="715.3467">RegisterRequest</text><line style="stroke:#181818;stroke-width:0.5;" x1="1436" x2="1583.8945" y1="726.5" y2="726.5"/><ellipse cx="1446" cy="740.1484" fill="none" rx="3" ry="3" style="stroke:#038048;stroke-width:1;"/><text fill="#000000" font-family="sans-serif" font-size="14" lengthAdjust="spacing" textLength="121.1875" x="1455" y="743.4951">username: String</text><ellipse cx="1446" cy="756.4453" fill="none" rx="3" ry="3" style="stroke:#038048;stroke-width:1;"/><text fill="#000000" font-family="sans-serif" font-size="14" lengthAdjust="spacing" textLength="117.6602" x="1455" y="759.792">password: String</text><ellipse cx="1446" cy="772.7422" fill="none" rx="3" ry="3" style="stroke:#038048;stroke-width:1;"/><text fill="#000000" font-family="sans-serif" font-size="14" lengthAdjust="spacing" textLength="90.6514" x="1455" y="776.0889">name: String</text><ellipse cx="1446" cy="789.0391" fill="none" rx="3" ry="3" style="stroke:#038048;stroke-width:1;"/><text fill="#000000" font-family="sans-serif" font-size="14" lengthAdjust="spacing" textLength="112.5742" x="1455" y="792.3857">surname: String</text><ellipse cx="1446" cy="805.3359" fill="none" rx="3" ry="3" style="stroke:#038048;stroke-width:1;"/><text fill="#000000" font-family="sans-serif" font-size="14" lengthAdjust="spacing" textLength="123.8945" x="1455" y="808.6826">isDoctor: Boolean</text><line style="stroke:#181818;stroke-width:0.5;" x1="1436" x2="1583.8945" y1="815.9844" y2="815.9844"/></g><!--class SendMessageRequest--><g class="entity" data-entity="SendMessageRequest" data-source-line="80" data-uid="ent0009" id="entity_SendMessageRequest"><rect fill="#F1F1F1" height="129.4844" rx="2.5" ry="2.5" style="stroke:#181818;stroke-width:0.5;" width="186.1162" x="1620" y="694.5"/><ellipse cx="1635" cy="710.5" fill="#ADD1B2" rx="11" ry="11" style="stroke:#181818;stroke-width:1;"/><path d="M1637.9688,716.1406 Q1637.3906,716.4375 1636.75,716.5781 Q1636.1094,716.7344 1635.4063,716.7344 Q1632.9063,716.7344 1631.5781,715.0938 Q1630.2656,713.4375 1630.2656,710.3125 Q1630.2656,707.1875 1631.5781,705.5313 Q1632.9063,703.875 1635.4063,703.875 Q1636.1094,703.875 1636.75,704.0313 Q1637.4063,704.1875 1637.9688,704.4844 L1637.9688,707.2031 Q1637.3438,706.625 1636.75,706.3594 Q1636.1563,706.0781 1635.5313,706.0781 Q1634.1875,706.0781 1633.5,707.1563 Q1632.8125,708.2188 1632.8125,710.3125 Q1632.8125,712.4063 1633.5,713.4844 Q1634.1875,714.5469 1635.5313,714.5469 Q1636.1563,714.5469 1636.75,714.2813 Q1637.3438,714 1637.9688,713.4219 L1637.9688,716.1406 Z " fill="#000000"/><text fill="#000000" font-family="sans-serif" font-size="14" lengthAdjust="spacing" textLength="154.1162" x="1649" y="715.3467">SendMessageRequest</text><line style="stroke:#181818;stroke-width:0.5;" x1="1621" x2="1805.1162" y1="726.5" y2="726.5"/><ellipse cx="1631" cy="740.1484" fill="none" rx="3" ry="3" style="stroke:#038048;stroke-width:1;"/><text fill="#000000" font-family="sans-serif" font-size="14" lengthAdjust="spacing" textLength="148.7432" x="1640" y="743.4951">message_text: String</text><ellipse cx="1631" cy="756.4453" fill="none" rx="3" ry="3" style="stroke:#038048;stroke-width:1;"/><text fill="#000000" font-family="sans-serif" font-size="14" lengthAdjust="spacing" textLength="101.3633" x="1640" y="759.792">chat_id: String</text><ellipse cx="1631" cy="772.7422" fill="none" rx="3" ry="3" style="stroke:#038048;stroke-width:1;"/><text fill="#000000" font-family="sans-serif" font-size="14" lengthAdjust="spacing" textLength="89.749" x="1640" y="776.0889">call_type: int</text><ellipse cx="1631" cy="789.0391" fill="none" rx="3" ry="3" style="stroke:#038048;stroke-width:1;"/><text fill="#000000" font-family="sans-serif" font-size="14" lengthAdjust="spacing" textLength="111.9727" x="1640" y="792.3857">filename: String</text><ellipse cx="1631" cy="805.3359" fill="none" rx="3" ry="3" style="stroke:#038048;stroke-width:1;"/><text fill="#000000" font-family="sans-serif" font-size="14" lengthAdjust="spacing" textLength="94.5547" x="1640" y="808.6826">image: String</text><line style="stroke:#181818;stroke-width:0.5;" x1="1621" x2="1805.1162" y1="815.9844" y2="815.9844"/></g><!--class FastAPIApp--><g class="entity" data-entity="FastAPIApp" data-source-line="88" data-uid="ent0010" id="entity_FastAPIApp"><rect fill="#F1F1F1" height="64.2969" rx="2.5" ry="2.5" style="stroke:#181818;stroke-width:0.5;" width="113.083" x="1453.5" y="251.5"/><ellipse cx="1469.476" cy="267.5" fill="#ADD1B2" rx="11" ry="11" style="stroke:#181818;stroke-width:1;"/><path d="M1472.4448,273.1406 Q1471.8667,273.4375 1471.226,273.5781 Q1470.5854,273.7344 1469.8823,273.7344 Q1467.3823,273.7344 1466.0542,272.0938 Q1464.7417,270.4375 1464.7417,267.3125 Q1464.7417,264.1875 1466.0542,262.5313 Q1467.3823,260.875 1469.8823,260.875 Q1470.5854,260.875 1471.226,261.0313 Q1471.8823,261.1875 1472.4448,261.4844 L1472.4448,264.2031 Q1471.8198,263.625 1471.226,263.3594 Q1470.6323,263.0781 1470.0073,263.0781 Q1468.6635,263.0781 1467.976,264.1563 Q1467.2885,265.2188 1467.2885,267.3125 Q1467.2885,269.4063 1467.976,270.4844 Q1468.6635,271.5469 1470.0073,271.5469 Q1470.6323,271.5469 1471.226,271.2813 Q1471.8198,271 1472.4448,270.4219 L1472.4448,273.1406 Z " fill="#000000"/><text fill="#000000" font-family="sans-serif" font-size="14" lengthAdjust="spacing" textLength="78.9141" x="1483.6929" y="272.3467">FastAPIApp</text><line style="stroke:#181818;stroke-width:0.5;" x1="1454.5" x2="1565.583" y1="283.5" y2="283.5"/><ellipse cx="1464.5" cy="297.1484" fill="none" rx="3" ry="3" style="stroke:#038048;stroke-width:1;"/><text fill="#000000" font-family="sans-serif" font-size="14" lengthAdjust="spacing" textLength="87.083" x="1473.5" y="300.4951">app: FastAPI</text><line style="stroke:#181818;stroke-width:0.5;" x1="1454.5" x2="1565.583" y1="307.7969" y2="307.7969"/></g><!--class ClientSession--><g class="entity" data-entity="ClientSession" data-source-line="92" data-uid="ent0011" id="entity_ClientSession"><rect fill="#F1F1F1" height="48" rx="2.5" ry="2.5" style="stroke:#181818;stroke-width:0.5;" width="125.9463" x="381" y="958"/><ellipse cx="396" cy="974" fill="#ADD1B2" rx="11" ry="11" style="stroke:#181818;stroke-width:1;"/><path d="M398.9688,979.6406 Q398.3906,979.9375 397.75,980.0781 Q397.1094,980.2344 396.4063,980.2344 Q393.9063,980.2344 392.5781,978.5938 Q391.2656,976.9375 391.2656,973.8125 Q391.2656,970.6875 392.5781,969.0313 Q393.9063,967.375 396.4063,967.375 Q397.1094,967.375 397.75,967.5313 Q398.4063,967.6875 398.9688,967.9844 L398.9688,970.7031 Q398.3438,970.125 397.75,969.8594 Q397.1563,969.5781 396.5313,969.5781 Q395.1875,969.5781 394.5,970.6563 Q393.8125,971.7188 393.8125,973.8125 Q393.8125,975.9063 394.5,976.9844 Q395.1875,978.0469 396.5313,978.0469 Q397.1563,978.0469 397.75,977.7813 Q398.3438,977.5 398.9688,976.9219 L398.9688,979.6406 Z " fill="#000000"/><text fill="#000000" font-family="sans-serif" font-size="14" lengthAdjust="spacing" textLength="93.9463" x="410" y="978.8467">ClientSession</text><line style="stroke:#181818;stroke-width:0.5;" x1="382" x2="505.9463" y1="990" y2="990"/><line style="stroke:#181818;stroke-width:0.5;" x1="382" x2="505.9463" y1="998" y2="998"/></g><!--link AcetAuth to ClientSession--><g class="link" data-entity-1="AcetAuth" data-entity-2="ClientSession" data-source-line="95" data-uid="lnk12" id="link_AcetAuth_ClientSession"><path codeLine="95" d="M444,881.17 C444,910.52 444,932.87 444,951.8" fill="none" id="AcetAuth-to-ClientSession" style="stroke:#181818;stroke-width:1;"/><polygon fill="#181818" points="444,957.8,448,948.8,444,952.8,440,948.8,444,957.8" style="stroke:#181818;stroke-width:1;"/><text fill="#000000" font-family="sans-serif" font-size="13" lengthAdjust="spacing" textLength="48.3247" x="445" y="924.0669">creates</text></g><!--link AcetAngleApp to AcetAuth--><g class="link" data-entity-1="AcetAngleApp" data-entity-2="AcetAuth" data-source-line="96" data-uid="lnk13" id="link_AcetAngleApp_AcetAuth"><path codeLine="96" d="M444,560.28 C444,587 444,607.03 444,630.98" fill="none" id="AcetAngleApp-to-AcetAuth" style="stroke:#181818;stroke-width:1;"/><polygon fill="#181818" points="444,636.98,448,627.98,444,631.98,440,627.98,444,636.98" style="stroke:#181818;stroke-width:1;"/><text fill="#000000" font-family="sans-serif" font-size="13" lengthAdjust="spacing" textLength="29.7832" x="445" y="603.0669">uses</text></g><!--link RequestHandler to JsonSchema--><g class="link" data-entity-1="RequestHandler" data-entity-2="JsonSchema" data-source-line="97" data-uid="lnk14" id="link_RequestHandler_JsonSchema"><path codeLine="97" d="M1056.98,324.06 C1041.62,410.63 1006.1283,610.7123 989.5183,704.3223" fill="none" id="RequestHandler-to-JsonSchema" style="stroke:#181818;stroke-width:1;"/><polygon fill="#181818" points="988.47,710.23,993.9809,702.0673,989.3435,705.3069,986.1039,700.6696,988.47,710.23" style="stroke:#181818;stroke-width:1;"/></g><!--link RequestHandler to RenderSchema--><g class="link" data-entity-1="RequestHandler" data-entity-2="RenderSchema" data-source-line="98" data-uid="lnk15" id="link_RequestHandler_RenderSchema"><path codeLine="98" d="M1071.02,324.06 C1086.38,410.63 1121.8717,610.7123 1138.4817,704.3223" fill="none" id="RequestHandler-to-RenderSchema" style="stroke:#181818;stroke-width:1;"/><polygon fill="#181818" points="1139.53,710.23,1141.8961,700.6696,1138.6565,705.3069,1134.0191,702.0673,1139.53,710.23" style="stroke:#181818;stroke-width:1;"/></g><!--link FastAPIApp to AuthRequest--><g class="link" data-entity-1="FastAPIApp" data-entity-2="AuthRequest" data-source-line="99" data-uid="lnk16" id="link_FastAPIApp_AuthRequest"><path codeLine="99" d="M1497.93,315.57 C1465.63,398.69 1379.4336,620.5075 1343.5836,712.7475" fill="none" id="FastAPIApp-to-AuthRequest" style="stroke:#181818;stroke-width:1;"/><polygon fill="#181818" points="1341.41,718.34,1348.3987,711.4004,1343.2213,713.6796,1340.942,708.5023,1341.41,718.34" style="stroke:#181818;stroke-width:1;"/></g><!--link FastAPIApp to RegisterRequest--><g class="link" data-entity-1="FastAPIApp" data-entity-2="RegisterRequest" data-source-line="100" data-uid="lnk17" id="link_FastAPIApp_RegisterRequest"><path codeLine="100" d="M1510,315.57 C1510,392.21 1510,585.52 1510,688.43" fill="none" id="FastAPIApp-to-RegisterRequest" style="stroke:#181818;stroke-width:1;"/><polygon fill="#181818" points="1510,694.43,1514,685.43,1510,689.43,1506,685.43,1510,694.43" style="stroke:#181818;stroke-width:1;"/></g><!--link FastAPIApp to SendMessageRequest--><g class="link" data-entity-1="FastAPIApp" data-entity-2="SendMessageRequest" data-source-line="101" data-uid="lnk18" id="link_FastAPIApp_SendMessageRequest"><path codeLine="101" d="M1523.32,315.57 C1556.18,392.21 1639.2553,586.0056 1683.3853,688.9156" fill="none" id="FastAPIApp-to-SendMessageRequest" style="stroke:#181818;stroke-width:1;"/><polygon fill="#181818" points="1685.75,694.43,1685.8792,684.582,1683.7794,689.8347,1678.5267,687.7349,1685.75,694.43" style="stroke:#181818;stroke-width:1;"/></g><!--SRC=[hLPTZjCm47xFAV96LzszG1-G2WW1qeeLvTsQshEfLSSE7cUxNSGPE0DNu0MEKMx4fFbtKeGGVMaptymtFvvyhZH0bAubXdKPTkdd9ENFJN1xjAjq4xosMMsoaEFOGgMV6ZMzSZ8ulqfVE6SGR6jUgrpRiNKfSjYZ82JIpYwkLkbBez66JMseVJnccWBwHKauodUT5bpwmNdLMyPuLE1rEYcEKpuuhUfCm0CGswDeQVyYuoY-B1G45787WQfcRg6e0KAhHCvDGOQBvbi4V0mzSHKazA0J2SQ8S2mukRQ1dvqTHznhWr5tEVCEAklo2oWAmtrvLmKjk4euewFgDObg03n-BRaDLNNG7jQN997zdjZCuBeecbrP2g6j3a8ihffd2k2303fQAOnpnMAKHz2k3CeTx6KFNpPWP5VEydXvC5kG-mchEp1NfgqWwH7j9BP6vyBQ5RiOsUtWJ70EbrAUOSoBS6G2Aasz5GC7uq29ywd5AJKL1ewpcBCy0li0L97gfnW62-RuD1Dq1eXFsUt_0ABt5sgPRw6s2kyESyrN6zkuH70H6q2fEB67Wt0Fw3axpM46hCh1xsSnRN7E3jNopW7IFG9EQ-8aMpHYcqLGS1aJjUL5eEINnek3jceo5jv1L_QzTo_M1_nK8eKtt991txvQl7ftxpSVnnnCqOd9lVCv34G1V4OJxdVax4RkC8UMToBRI-BVCaJoJEUWMaW6bLg5_l_nLTTEqtrB5-jkROsrTrXI_Nh-6ysb3cPkj-NqTkkAsF1SRkjZYUgOK_mQYLI_COwKlxR5OjzKCnJylfBNG65zztOWqQp_gzRS-uqls-HPUlfs-lxhw-d7wMVI_I6ukNa-TanNAOiTtn2KZ6w3oh6BMgKyV4gYhQvS-cMSGuVBbGpwE9FtYn93qGB4yFHeVWC0]--></g></svg>